<?xml version="1.0" encoding="UTF-8" standalone="no"?>
<!-- Created with Inkscape (http://www.inkscape.org/) -->
<svg
   xmlns:dc="http://purl.org/dc/elements/1.1/"
   xmlns:cc="http://web.resource.org/cc/"
   xmlns:rdf="http://www.w3.org/1999/02/22-rdf-syntax-ns#"
   xmlns:svg="http://www.w3.org/2000/svg"
   xmlns="http://www.w3.org/2000/svg"
   xmlns:sodipodi="http://sodipodi.sourceforge.net/DTD/sodipodi-0.dtd"
   xmlns:inkscape="http://www.inkscape.org/namespaces/inkscape"
   width="16"
   height="16"
   id="svg2"
   sodipodi:version="0.32"
   inkscape:version="0.45.1"
   version="1.0"
   sodipodi:docbase="/home/rwl/python/workspace/traitor/plugins/traitor/images/svg"
   sodipodi:docname="branches.svg"
   inkscape:output_extension="org.inkscape.output.svg.inkscape"
   inkscape:export-filename="/home/rwl/python/workspace/wxpylon/img/icon/branches.png"
   inkscape:export-xdpi="90"
   inkscape:export-ydpi="90">
  <defs
     id="defs4" />
  <sodipodi:namedview
     id="base"
     pagecolor="#ffffff"
     bordercolor="#666666"
     borderopacity="1.0"
     gridtolerance="10000"
     guidetolerance="10"
     objecttolerance="10"
     inkscape:pageopacity="0.0"
     inkscape:pageshadow="2"
     inkscape:zoom="15.839192"
     inkscape:cx="10.630473"
     inkscape:cy="6.5071313"
     inkscape:document-units="px"
     inkscape:current-layer="layer1"
     width="16px"
     height="16px"
     inkscape:grid-points="true"
     showgrid="true"
     inkscape:window-width="1272"
     inkscape:window-height="972"
     inkscape:window-x="322"
     inkscape:window-y="0"
     gridspacingx="1px"
     gridspacingy="1px" />
  <metadata
     id="metadata7">
    <rdf:RDF>
      <cc:Work
         rdf:about="">
        <dc:format>image/svg+xml</dc:format>
        <dc:type
           rdf:resource="http://purl.org/dc/dcmitype/StillImage" />
      </cc:Work>
    </rdf:RDF>
  </metadata>
  <g
     inkscape:label="Layer 1"
     inkscape:groupmode="layer"
     id="layer1">
    <g
       style="opacity:0.15;stroke:#000000;stroke-width:2;stroke-miterlimit:4;stroke-dasharray:none;stroke-opacity:1"
       id="g12676"
       transform="translate(2,-1)">
      <path
         sodipodi:nodetypes="cc"
         id="path12678"
         d="M 3.0090253,15 C 3.0090253,14 3.003605,13.5 3.003605,12.5"
         style="fill:none;fill-rule:evenodd;stroke:#000000;stroke-width:2;stroke-linecap:butt;stroke-linejoin:miter;stroke-miterlimit:4;stroke-dasharray:none;stroke-opacity:1" />
      <path
         sodipodi:nodetypes="cc"
         id="path12680"
         d="M 0.50360505,12 C 1.8369383,12 4.1702717,12 5.503605,12"
         style="fill:none;fill-rule:evenodd;stroke:#000000;stroke-width:2;stroke-linecap:butt;stroke-linejoin:miter;stroke-miterlimit:4;stroke-dasharray:none;stroke-opacity:1" />
      <path
         sodipodi:nodetypes="cc"
         id="path12682"
         d="M 0.50360515,10 C 1.8369383,10 4.1702717,10 5.503605,10"
         style="fill:none;fill-rule:evenodd;stroke:#000000;stroke-width:2;stroke-linecap:butt;stroke-linejoin:miter;stroke-miterlimit:4;stroke-dasharray:none;stroke-opacity:1" />
      <path
         sodipodi:nodetypes="cc"
         id="path12684"
         d="M 3.003605,9.5 C 3.003605,8.5 3.0090259,7 3.0090259,6"
         style="fill:none;fill-rule:evenodd;stroke:#000000;stroke-width:2;stroke-linecap:butt;stroke-linejoin:miter;stroke-miterlimit:4;stroke-dasharray:none;stroke-opacity:1" />
      <path
         sodipodi:nodetypes="cc"
         id="path12686"
         d="M 0.018051177,6 C 1.7088352,6 3.3182418,6 5.0090259,6"
         style="fill:none;fill-rule:evenodd;stroke:#000000;stroke-width:2;stroke-linecap:butt;stroke-linejoin:miter;stroke-miterlimit:4;stroke-dasharray:none;stroke-opacity:1" />
      <path
         sodipodi:nodetypes="csssssc"
         id="path12688"
         d="M 4.5090259,6 C 4.5090259,6 5.0090259,4 6.5090259,4 C 8.0090259,4 9.5090259,6 9.5090259,7 C 9.5090259,8 8.5090259,8.5 8.0090259,8.5 C 7.5090259,8.5 6.5090259,8 6.5090259,7 C 6.5090259,6 8.0090259,4 9.5090259,4 C 11.009025,4 11.509025,6 11.509025,6"
         style="fill:none;fill-rule:evenodd;stroke:#000000;stroke-width:2;stroke-linecap:butt;stroke-linejoin:miter;stroke-miterlimit:4;stroke-dasharray:none;stroke-opacity:1" />
      <path
         id="path12690"
         d="M 13,15 C 13,14 13,13 13,12"
         style="fill:none;fill-rule:evenodd;stroke:#000000;stroke-width:2;stroke-linecap:butt;stroke-linejoin:miter;stroke-miterlimit:4;stroke-dasharray:none;stroke-opacity:1" />
      <path
         sodipodi:nodetypes="cc"
         id="path12692"
         d="M 10.503605,12 C 11.836938,12 14.170272,12 15.503605,12"
         style="fill:none;fill-rule:evenodd;stroke:#000000;stroke-width:2;stroke-linecap:butt;stroke-linejoin:miter;stroke-miterlimit:4;stroke-dasharray:none;stroke-opacity:1" />
      <path
         sodipodi:nodetypes="cc"
         id="path12694"
         d="M 10.503605,10 C 11.836938,10 14.170272,10 15.503605,10"
         style="fill:none;fill-rule:evenodd;stroke:#000000;stroke-width:2;stroke-linecap:butt;stroke-linejoin:miter;stroke-miterlimit:4;stroke-dasharray:none;stroke-opacity:1" />
      <path
         sodipodi:nodetypes="cc"
         id="path12696"
         d="M 13.003605,9.5 C 13.003605,8.5 13,7 13,6"
         style="fill:none;fill-rule:evenodd;stroke:#000000;stroke-width:2;stroke-linecap:butt;stroke-linejoin:miter;stroke-miterlimit:4;stroke-dasharray:none;stroke-opacity:1" />
      <path
         sodipodi:nodetypes="cc"
         id="path12698"
         d="M 11.009025,6 C 12.699809,6 14.309216,6 16,6"
         style="fill:none;fill-rule:evenodd;stroke:#000000;stroke-width:2;stroke-linecap:butt;stroke-linejoin:miter;stroke-miterlimit:4;stroke-dasharray:none;stroke-opacity:1" />
    </g>
    <g
       id="g17495"
       transform="translate(-13.485554,9.5)">
      <path
         sodipodi:nodetypes="cc"
         id="path14446"
         d="M 20.49458,2.5 C 20.49458,1.5 20.489159,1 20.489159,0"
         style="fill:none;fill-rule:evenodd;stroke:#c0c0c0;stroke-width:1px;stroke-linecap:butt;stroke-linejoin:miter;stroke-opacity:1" />
      <path
         sodipodi:nodetypes="cc"
         id="path14448"
         d="M 17.989159,-0.5 C 19.322492,-0.5 21.655826,-0.5 22.989159,-0.5"
         style="fill:none;fill-rule:evenodd;stroke:#c0c0c0;stroke-width:1px;stroke-linecap:butt;stroke-linejoin:miter;stroke-opacity:1" />
      <path
         sodipodi:nodetypes="cc"
         id="path14450"
         d="M 17.989159,-2.5 C 19.322492,-2.5 21.655826,-2.5 22.989159,-2.5"
         style="fill:none;fill-rule:evenodd;stroke:#c0c0c0;stroke-width:1px;stroke-linecap:butt;stroke-linejoin:miter;stroke-opacity:1" />
      <path
         sodipodi:nodetypes="cc"
         id="path14452"
         d="M 20.489159,-3 C 20.489159,-4 20.49458,-5.5 20.49458,-6.5"
         style="fill:none;fill-rule:evenodd;stroke:#c0c0c0;stroke-width:1px;stroke-linecap:butt;stroke-linejoin:miter;stroke-opacity:1" />
      <path
         sodipodi:nodetypes="cc"
         id="path14454"
         d="M 17.503605,-6.5 C 19.194389,-6.5 20.803796,-6.5 22.49458,-6.5"
         style="fill:none;fill-rule:evenodd;stroke:#c0c0c0;stroke-width:1.0072093px;stroke-linecap:butt;stroke-linejoin:miter;stroke-opacity:1" />
      <path
         sodipodi:nodetypes="csssssc"
         id="path14456"
         d="M 21.99458,-6.5 C 21.99458,-6.5 22.49458,-8.5 23.99458,-8.5 C 25.49458,-8.5 26.99458,-6.5 26.99458,-5.5 C 26.99458,-4.5 25.99458,-4 25.49458,-4 C 24.99458,-4 23.99458,-4.5 23.99458,-5.5 C 23.99458,-6.5 25.49458,-8.5 26.99458,-8.5 C 28.494579,-8.5 28.994579,-6.5 28.994579,-6.5"
         style="fill:none;fill-rule:evenodd;stroke:#c0c0c0;stroke-width:1px;stroke-linecap:butt;stroke-linejoin:miter;stroke-opacity:1" />
      <path
         id="path14458"
         d="M 30.485554,2.5 C 30.485554,1.5 30.485554,0.5 30.485554,-0.5"
         style="fill:none;fill-rule:evenodd;stroke:#c0c0c0;stroke-width:1px;stroke-linecap:butt;stroke-linejoin:miter;stroke-opacity:1" />
      <path
         sodipodi:nodetypes="cc"
         id="path14460"
         d="M 27.989159,-0.5 C 29.322492,-0.5 31.655826,-0.5 32.989159,-0.5"
         style="fill:none;fill-rule:evenodd;stroke:#c0c0c0;stroke-width:1px;stroke-linecap:butt;stroke-linejoin:miter;stroke-opacity:1" />
      <path
         sodipodi:nodetypes="cc"
         id="path14462"
         d="M 27.989159,-2.5 C 29.322492,-2.5 31.655826,-2.5 32.989159,-2.5"
         style="fill:none;fill-rule:evenodd;stroke:#c0c0c0;stroke-width:1px;stroke-linecap:butt;stroke-linejoin:miter;stroke-opacity:1" />
      <path
         sodipodi:nodetypes="cc"
         id="path14464"
         d="M 30.489159,-3 C 30.489159,-4 30.485554,-5.5 30.485554,-6.5"
         style="fill:none;fill-rule:evenodd;stroke:#c0c0c0;stroke-width:1px;stroke-linecap:butt;stroke-linejoin:miter;stroke-opacity:1" />
      <path
         sodipodi:nodetypes="cc"
         id="path14466"
         d="M 28.494579,-6.5 C 30.185363,-6.5 31.79477,-6.5 33.485554,-6.5"
         style="fill:none;fill-rule:evenodd;stroke:#c0c0c0;stroke-width:1.0072093px;stroke-linecap:butt;stroke-linejoin:miter;stroke-opacity:1" />
    </g>
    <path
       sodipodi:nodetypes="cc"
       id="path13435"
       d="M 5.003605,8.5 C 5.003605,7.5 5.0090259,6 5.0090259,5"
       style="fill:none;fill-rule:evenodd;stroke:#808080;stroke-width:1px;stroke-linecap:butt;stroke-linejoin:miter;stroke-opacity:1" />
    <path
       sodipodi:nodetypes="cc"
       id="path13437"
       d="M 2.018051,5 C 3.708835,5 5.3182418,5 7.0090259,5"
       style="fill:none;fill-rule:evenodd;stroke:#808080;stroke-width:1.0072093px;stroke-linecap:butt;stroke-linejoin:miter;stroke-opacity:1" />
    <path
       sodipodi:nodetypes="csssssc"
       id="path13439"
       d="M 6.5090259,5 C 6.5090259,5 7.0090259,3 8.5090259,3 C 10.009026,3 11.509026,5 11.509026,6 C 11.509026,7 10.509026,7.5 10.009026,7.5 C 9.5090259,7.5 8.5090259,7 8.5090259,6 C 8.5090259,5 10.009026,3 11.509026,3 C 13.009025,3 13.509025,5 13.509025,5"
       style="fill:none;fill-rule:evenodd;stroke:#808080;stroke-width:1px;stroke-linecap:butt;stroke-linejoin:miter;stroke-opacity:1" />
    <path
       id="path13441"
       d="M 15,14 C 15,13 15,12 15,11"
       style="fill:none;fill-rule:evenodd;stroke:#808080;stroke-width:1px;stroke-linecap:butt;stroke-linejoin:miter;stroke-opacity:1" />
    <path
       sodipodi:nodetypes="cc"
       id="path13443"
       d="M 12.503605,11 C 13.836938,11 16.170272,11 17.503605,11"
       style="fill:none;fill-rule:evenodd;stroke:#808080;stroke-width:1px;stroke-linecap:butt;stroke-linejoin:miter;stroke-opacity:1" />
    <path
       sodipodi:nodetypes="cc"
       id="path13445"
       d="M 12.503605,9 C 13.836938,9 16.170272,9 17.503605,9"
       style="fill:none;fill-rule:evenodd;stroke:#808080;stroke-width:1px;stroke-linecap:butt;stroke-linejoin:miter;stroke-opacity:1" />
    <path
       sodipodi:nodetypes="cc"
       id="path13447"
       d="M 15.003605,8.5 C 15.003605,7.5 15,6 15,5"
       style="fill:none;fill-rule:evenodd;stroke:#808080;stroke-width:1px;stroke-linecap:butt;stroke-linejoin:miter;stroke-opacity:1" />
    <path
       sodipodi:nodetypes="cc"
       id="path13449"
       d="M 13,5 C 14.690784,5 16.300191,5 17.990975,5"
       style="fill:none;fill-rule:evenodd;stroke:#808080;stroke-width:1.0072093px;stroke-linecap:butt;stroke-linejoin:miter;stroke-opacity:1" />
    <path
       style="fill:none;fill-rule:evenodd;stroke:#808080;stroke-width:1px;stroke-linecap:butt;stroke-linejoin:miter;stroke-opacity:1"
       d="M 2.503605,9 C 3.836938,9 6.170272,9 7.503605,9"
       id="path17512"
       sodipodi:nodetypes="cc" />
    <path
       style="fill:none;fill-rule:evenodd;stroke:#808080;stroke-width:1px;stroke-linecap:butt;stroke-linejoin:miter;stroke-opacity:1"
       d="M 2.503605,11 C 3.836938,11 6.170272,11 7.503605,11"
       id="path17510"
       sodipodi:nodetypes="cc" />
    <g
       transform="translate(4,-3)"
       id="g12700"
       style="opacity:0.15;stroke:#000000;stroke-width:2;stroke-miterlimit:4;stroke-dasharray:none;stroke-opacity:1">
      <path
         style="fill:none;fill-rule:evenodd;stroke:#000000;stroke-width:2;stroke-linecap:butt;stroke-linejoin:miter;stroke-miterlimit:4;stroke-dasharray:none;stroke-opacity:1"
         d="M 3.0090253,15 C 3.0090253,14 3.003605,13.5 3.003605,12.5"
         id="path12702"
         sodipodi:nodetypes="cc" />
      <path
         style="fill:none;fill-rule:evenodd;stroke:#000000;stroke-width:2;stroke-linecap:butt;stroke-linejoin:miter;stroke-miterlimit:4;stroke-dasharray:none;stroke-opacity:1"
         d="M 0.50360505,12 C 1.8369383,12 4.1702717,12 5.503605,12"
         id="path12704"
         sodipodi:nodetypes="cc" />
      <path
         style="fill:none;fill-rule:evenodd;stroke:#000000;stroke-width:2;stroke-linecap:butt;stroke-linejoin:miter;stroke-miterlimit:4;stroke-dasharray:none;stroke-opacity:1"
         d="M 0.50360515,10 C 1.8369383,10 4.1702717,10 5.503605,10"
         id="path12706"
         sodipodi:nodetypes="cc" />
      <path
         style="fill:none;fill-rule:evenodd;stroke:#000000;stroke-width:2;stroke-linecap:butt;stroke-linejoin:miter;stroke-miterlimit:4;stroke-dasharray:none;stroke-opacity:1"
         d="M 3.003605,9.5 C 3.003605,8.5 3.0090259,7 3.0090259,6"
         id="path12708"
         sodipodi:nodetypes="cc" />
      <path
         style="fill:none;fill-rule:evenodd;stroke:#000000;stroke-width:2;stroke-linecap:butt;stroke-linejoin:miter;stroke-miterlimit:4;stroke-dasharray:none;stroke-opacity:1"
         d="M 0.018051177,6 C 1.7088352,6 3.3182418,6 5.0090259,6"
         id="path12710"
         sodipodi:nodetypes="cc" />
      <path
         style="fill:none;fill-rule:evenodd;stroke:#000000;stroke-width:2;stroke-linecap:butt;stroke-linejoin:miter;stroke-miterlimit:4;stroke-dasharray:none;stroke-opacity:1"
         d="M 4.5090259,6 C 4.5090259,6 5.0090259,4 6.5090259,4 C 8.0090259,4 9.5090259,6 9.5090259,7 C 9.5090259,8 8.5090259,8.5 8.0090259,8.5 C 7.5090259,8.5 6.5090259,8 6.5090259,7 C 6.5090259,6 8.0090259,4 9.5090259,4 C 11.009025,4 11.509025,6 11.509025,6"
         id="path12712"
         sodipodi:nodetypes="csssssc" />
      <path
         style="fill:none;fill-rule:evenodd;stroke:#000000;stroke-width:2;stroke-linecap:butt;stroke-linejoin:miter;stroke-miterlimit:4;stroke-dasharray:none;stroke-opacity:1"
         d="M 13,15 C 13,14 13,13 13,12"
         id="path12714" />
      <path
         style="fill:none;fill-rule:evenodd;stroke:#000000;stroke-width:2;stroke-linecap:butt;stroke-linejoin:miter;stroke-miterlimit:4;stroke-dasharray:none;stroke-opacity:1"
         d="M 10.503605,12 C 11.836938,12 14.170272,12 15.503605,12"
         id="path12716"
         sodipodi:nodetypes="cc" />
      <path
         style="fill:none;fill-rule:evenodd;stroke:#000000;stroke-width:2;stroke-linecap:butt;stroke-linejoin:miter;stroke-miterlimit:4;stroke-dasharray:none;stroke-opacity:1"
         d="M 10.503605,10 C 11.836938,10 14.170272,10 15.503605,10"
         id="path12718"
         sodipodi:nodetypes="cc" />
      <path
         style="fill:none;fill-rule:evenodd;stroke:#000000;stroke-width:2;stroke-linecap:butt;stroke-linejoin:miter;stroke-miterlimit:4;stroke-dasharray:none;stroke-opacity:1"
         d="M 13.003605,9.5 C 13.003605,8.5 13,7 13,6"
         id="path12720"
         sodipodi:nodetypes="cc" />
      <path
         style="fill:none;fill-rule:evenodd;stroke:#000000;stroke-width:2;stroke-linecap:butt;stroke-linejoin:miter;stroke-miterlimit:4;stroke-dasharray:none;stroke-opacity:1"
         d="M 11.009025,6 C 12.699809,6 14.309216,6 16,6"
         id="path12722"
         sodipodi:nodetypes="cc" />
    </g>
    <path
       style="fill:none;fill-rule:evenodd;stroke:#808080;stroke-width:1px;stroke-linecap:butt;stroke-linejoin:miter;stroke-opacity:1"
       d="M 5,14 C 5,13 5,12 5,11"
       id="path17508" />
    <g
       transform="translate(0,1)"
       id="g10714"
       style="stroke:#000000;stroke-opacity:1;opacity:0.15;stroke-width:2;stroke-miterlimit:4;stroke-dasharray:none">
      <path
         style="fill:none;fill-rule:evenodd;stroke:#000000;stroke-width:2;stroke-linecap:butt;stroke-linejoin:miter;stroke-opacity:1;stroke-miterlimit:4;stroke-dasharray:none"
         d="M 3.0090253,15 C 3.0090253,14 3.003605,13.5 3.003605,12.5"
         id="path10716"
         sodipodi:nodetypes="cc" />
      <path
         style="fill:none;fill-rule:evenodd;stroke:#000000;stroke-width:2;stroke-linecap:butt;stroke-linejoin:miter;stroke-opacity:1;stroke-miterlimit:4;stroke-dasharray:none"
         d="M 0.50360505,12 C 1.8369383,12 4.1702717,12 5.503605,12"
         id="path10718"
         sodipodi:nodetypes="cc" />
      <path
         style="fill:none;fill-rule:evenodd;stroke:#000000;stroke-width:2;stroke-linecap:butt;stroke-linejoin:miter;stroke-opacity:1;stroke-miterlimit:4;stroke-dasharray:none"
         d="M 0.50360515,10 C 1.8369383,10 4.1702717,10 5.503605,10"
         id="path10720"
         sodipodi:nodetypes="cc" />
      <path
         style="fill:none;fill-rule:evenodd;stroke:#000000;stroke-width:2;stroke-linecap:butt;stroke-linejoin:miter;stroke-opacity:1;stroke-miterlimit:4;stroke-dasharray:none"
         d="M 3.003605,9.5 C 3.003605,8.5 3.0090259,7 3.0090259,6"
         id="path10722"
         sodipodi:nodetypes="cc" />
      <path
         style="fill:none;fill-rule:evenodd;stroke:#000000;stroke-width:2;stroke-linecap:butt;stroke-linejoin:miter;stroke-opacity:1;stroke-miterlimit:4;stroke-dasharray:none"
         d="M 0.018051177,6 C 1.7088352,6 3.3182418,6 5.0090259,6"
         id="path10724"
         sodipodi:nodetypes="cc" />
      <path
         style="fill:none;fill-rule:evenodd;stroke:#000000;stroke-width:2;stroke-linecap:butt;stroke-linejoin:miter;stroke-opacity:1;stroke-miterlimit:4;stroke-dasharray:none"
         d="M 4.5090259,6 C 4.5090259,6 5.0090259,4 6.5090259,4 C 8.0090259,4 9.5090259,6 9.5090259,7 C 9.5090259,8 8.5090259,8.5 8.0090259,8.5 C 7.5090259,8.5 6.5090259,8 6.5090259,7 C 6.5090259,6 8.0090259,4 9.5090259,4 C 11.009025,4 11.509025,6 11.509025,6"
         id="path10726"
         sodipodi:nodetypes="csssssc" />
      <path
         style="fill:none;fill-rule:evenodd;stroke:#000000;stroke-width:2;stroke-linecap:butt;stroke-linejoin:miter;stroke-opacity:1;stroke-miterlimit:4;stroke-dasharray:none"
         d="M 13,15 C 13,14 13,13 13,12"
         id="path10728" />
      <path
         style="fill:none;fill-rule:evenodd;stroke:#000000;stroke-width:2;stroke-linecap:butt;stroke-linejoin:miter;stroke-opacity:1;stroke-miterlimit:4;stroke-dasharray:none"
         d="M 10.503605,12 C 11.836938,12 14.170272,12 15.503605,12"
         id="path10730"
         sodipodi:nodetypes="cc" />
      <path
         style="fill:none;fill-rule:evenodd;stroke:#000000;stroke-width:2;stroke-linecap:butt;stroke-linejoin:miter;stroke-opacity:1;stroke-miterlimit:4;stroke-dasharray:none"
         d="M 10.503605,10 C 11.836938,10 14.170272,10 15.503605,10"
         id="path10732"
         sodipodi:nodetypes="cc" />
      <path
         style="fill:none;fill-rule:evenodd;stroke:#000000;stroke-width:2;stroke-linecap:butt;stroke-linejoin:miter;stroke-opacity:1;stroke-miterlimit:4;stroke-dasharray:none"
         d="M 13.003605,9.5 C 13.003605,8.5 13,7 13,6"
         id="path10734"
         sodipodi:nodetypes="cc" />
      <path
         style="fill:none;fill-rule:evenodd;stroke:#000000;stroke-width:2;stroke-linecap:butt;stroke-linejoin:miter;stroke-opacity:1;stroke-miterlimit:4;stroke-dasharray:none"
         d="M 11.009025,6 C 12.699809,6 14.309216,6 16,6"
         id="path10736"
         sodipodi:nodetypes="cc" />
    </g>
    <g
       id="g13414"
       transform="translate(0,1)">
      <path
         sodipodi:nodetypes="cc"
         id="path9233"
         d="M 3.0090253,15 C 3.0090253,14 3.003605,13.5 3.003605,12.5"
         style="fill:none;fill-rule:evenodd;stroke:#000000;stroke-width:1px;stroke-linecap:butt;stroke-linejoin:miter;stroke-opacity:1" />
      <path
         sodipodi:nodetypes="cc"
         id="path9235"
         d="M 0.50360505,12 C 1.8369383,12 4.1702717,12 5.503605,12"
         style="fill:none;fill-rule:evenodd;stroke:#000000;stroke-width:1px;stroke-linecap:butt;stroke-linejoin:miter;stroke-opacity:1" />
      <path
         sodipodi:nodetypes="cc"
         id="path9237"
         d="M 0.50360515,10 C 1.8369383,10 4.1702717,10 5.503605,10"
         style="fill:none;fill-rule:evenodd;stroke:#000000;stroke-width:1px;stroke-linecap:butt;stroke-linejoin:miter;stroke-opacity:1" />
      <path
         sodipodi:nodetypes="cc"
         id="path9239"
         d="M 3.003605,9.5 C 3.003605,8.5 3.0090259,7 3.0090259,6"
         style="fill:none;fill-rule:evenodd;stroke:#000000;stroke-width:1px;stroke-linecap:butt;stroke-linejoin:miter;stroke-opacity:1" />
      <path
         sodipodi:nodetypes="cc"
         id="path9241"
         d="M 0.018051177,6 C 1.7088352,6 3.3182418,6 5.0090259,6"
         style="fill:none;fill-rule:evenodd;stroke:#000000;stroke-width:1.0072093px;stroke-linecap:butt;stroke-linejoin:miter;stroke-opacity:1" />
      <path
         sodipodi:nodetypes="csssssc"
         id="path9243"
         d="M 4.5090259,6 C 4.5090259,6 5.0090259,4 6.5090259,4 C 8.0090259,4 9.5090259,6 9.5090259,7 C 9.5090259,8 8.5090259,8.5 8.0090259,8.5 C 7.5090259,8.5 6.5090259,8 6.5090259,7 C 6.5090259,6 8.0090259,4 9.5090259,4 C 11.009025,4 11.509025,6 11.509025,6"
         style="fill:none;fill-rule:evenodd;stroke:#000000;stroke-width:1px;stroke-linecap:butt;stroke-linejoin:miter;stroke-opacity:1" />
      <path
         id="path9245"
         d="M 13,15 C 13,14 13,13 13,12"
         style="fill:none;fill-rule:evenodd;stroke:#000000;stroke-width:1px;stroke-linecap:butt;stroke-linejoin:miter;stroke-opacity:1" />
      <path
         sodipodi:nodetypes="cc"
         id="path9247"
         d="M 10.503605,12 C 11.836938,12 14.170272,12 15.503605,12"
         style="fill:none;fill-rule:evenodd;stroke:#000000;stroke-width:1px;stroke-linecap:butt;stroke-linejoin:miter;stroke-opacity:1" />
      <path
         sodipodi:nodetypes="cc"
         id="path9249"
         d="M 10.503605,10 C 11.836938,10 14.170272,10 15.503605,10"
         style="fill:none;fill-rule:evenodd;stroke:#000000;stroke-width:1px;stroke-linecap:butt;stroke-linejoin:miter;stroke-opacity:1" />
      <path
         sodipodi:nodetypes="cc"
         id="path9251"
         d="M 13.003605,9.5 C 13.003605,8.5 13,7 13,6"
         style="fill:none;fill-rule:evenodd;stroke:#000000;stroke-width:1px;stroke-linecap:butt;stroke-linejoin:miter;stroke-opacity:1" />
      <path
         sodipodi:nodetypes="cc"
         id="path9253"
         d="M 11.009025,6 C 12.699809,6 14.309216,6 16,6"
         style="fill:none;fill-rule:evenodd;stroke:#000000;stroke-width:1.0072093px;stroke-linecap:butt;stroke-linejoin:miter;stroke-opacity:1" />
    </g>
  </g>
</svg>
