<?xml version="1.0" encoding="UTF-8" standalone="no"?>
<!-- Created with Inkscape (http://www.inkscape.org/) -->
<svg
   xmlns:dc="http://purl.org/dc/elements/1.1/"
   xmlns:cc="http://creativecommons.org/ns#"
   xmlns:rdf="http://www.w3.org/1999/02/22-rdf-syntax-ns#"
   xmlns:svg="http://www.w3.org/2000/svg"
   xmlns="http://www.w3.org/2000/svg"
   xmlns:sodipodi="http://sodipodi.sourceforge.net/DTD/sodipodi-0.dtd"
   xmlns:inkscape="http://www.inkscape.org/namespaces/inkscape"
   width="547.69647"
   height="408.20651"
   id="svg2160"
   sodipodi:version="0.32"
   inkscape:version="0.46"
   sodipodi:docbase="F:\"
   sodipodi:docname="pylon_logo.svg"
   inkscape:output_extension="org.inkscape.output.svg.inkscape"
   version="1.0"
   inkscape:export-filename="/home/rwl/python/aes/Pylon/doc/images/pylon_logo.png"
   inkscape:export-xdpi="1.1023833"
   inkscape:export-ydpi="1.1023833">
  <defs
     id="defs2162">
    <inkscape:perspective
       sodipodi:type="inkscape:persp3d"
       inkscape:vp_x="0 : 145.00002 : 1"
       inkscape:vp_y="0 : 1000 : 0"
       inkscape:vp_z="371.00003 : 145.00002 : 1"
       inkscape:persp3d-origin="185.50002 : 96.666677 : 1"
       id="perspective39" />
  </defs>
  <sodipodi:namedview
     id="base"
     pagecolor="#ffffff"
     bordercolor="#ffffff"
     borderopacity="0.0"
     inkscape:pageopacity="0.0"
     inkscape:pageshadow="0"
     inkscape:zoom="0.87896496"
     inkscape:cx="275.64172"
     inkscape:cy="211.18641"
     inkscape:document-units="px"
     inkscape:current-layer="layer1"
     inkscape:window-width="1281"
     inkscape:window-height="998"
     inkscape:window-x="154"
     inkscape:window-y="67"
     showguides="false"
     showgrid="false" />
  <metadata
     id="metadata2165">
    <rdf:RDF>
      <cc:Work
         rdf:about="">
        <dc:format>image/svg+xml</dc:format>
        <dc:type
           rdf:resource="http://purl.org/dc/dcmitype/StillImage" />
      </cc:Work>
    </rdf:RDF>
  </metadata>
  <g
     inkscape:label="Layer 1"
     inkscape:groupmode="layer"
     id="layer1"
     transform="translate(152.138, -739.932)">
    <path
       style="fill:none;fill-opacity:1;fill-rule:evenodd;stroke:#baba00;stroke-width:10;stroke-linecap:butt;stroke-linejoin:miter;stroke-miterlimit:4;stroke-dasharray:none;stroke-opacity:1"
       d="M -98.140384,943.85026 L -98.140384,943.85026 L -94.629068,936.82194 L -91.11775,929.81119 L -87.606433,922.83557 L -84.095117,915.91241 L -80.5838,909.05913 L -77.072484,902.29283 L -73.561167,895.63033 L -70.049849,889.08838 L -66.538533,882.68335 L -63.027216,876.43118 L -59.515901,870.34783 L -56.004585,864.44722 L -52.493268,858.74628 L -48.981951,853.25699 L -45.470634,847.99483 L -41.959318,842.97242 L -38.448,838.20172 L -34.936684,833.69538 L -31.425367,829.464 L -27.91405,825.51878 L -24.402733,821.86885 L -20.891418,818.52481 L -17.380102,815.49294 L -13.868785,812.78239 L -10.357468,810.39951 L -6.8461467,808.34989 L -3.3348397,806.63919 L 0.17648,805.27163 L 3.687801,804.24999 L 7.199108,803.57781 L 10.71043,803.25577 L 14.221749,803.28531 L 17.733056,803.66641 L 21.244391,804.39765 L 24.755698,805.47765 L 28.267019,806.90287 L 31.778337,808.67123 L 35.289647,810.77709 L 38.800968,813.21551 L 42.312289,815.9802 L 45.823598,819.0648 L 49.334919,822.46159 L 52.846217,826.16144 L 56.357538,830.15587 L 59.868871,834.43368 L 63.38018,838.98569 L 66.891502,843.79928 L 70.402823,848.86318 L 73.914132,854.16473 L 77.425453,859.68988 L 80.936774,865.42596 L 84.448084,871.35822 L 87.959405,877.47096 L 91.470726,883.74992 L 94.982026,890.17907 L 98.493356,896.74245 L 102.00467,903.42353 L 105.51599,910.20565 L 109.02731,917.07195 L 112.53862,924.00507 L 116.04994,930.9878 L 119.56125,938.00273 L 123.07257,945.03226 L 126.58389,952.05887 L 130.09519,959.06486 L 133.60651,966.03297 L 137.11785,972.94551 L 140.62915,979.78535 L 144.14048,986.53541 L 147.65179,993.17873 L 151.16311,999.69879 L 154.67443,1006.0793 L 158.18574,1012.3042 L 161.69706,1018.3582 L 165.20837,1024.2257 L 168.71968,1029.8922 L 172.23102,1035.3442 L 175.74232,1040.567 L 179.25364,1045.5479 L 182.76496,1050.275 L 186.27627,1054.7363 L 189.78759,1058.9199 L 193.2989,1062.816 L 196.81022,1066.4153 L 200.32154,1069.708 L 203.83285,1072.6857 L 207.34417,1075.3414 L 210.85551,1077.6688 L 214.3668,1079.6621 L 217.87813,1081.315 L 221.38943,1082.625 L 224.90076,1083.5875 L 228.41208,1084.2014 L 231.92339,1084.4644 L 235.43471,1084.3759 L 238.94602,1083.9356 L 242.45734,1083.1454 L 245.96866,1082.0076 L 249.47996,1080.5241 L 252.99129,1078.6988 L 256.50261,1076.5367 L 260.01392,1074.0427 L 263.52524,1071.2232 L 267.03655,1068.0859 L 270.54787,1064.6377 L 274.05919,1060.8872 L 277.5705,1056.845 L 281.08182,1052.5201 L 284.59312,1047.9231 L 288.10444,1043.0666 L 291.61577,1037.9619 L 295.12708,1032.6217 L 298.63841,1027.06 L 302.14973,1021.2901 L 305.66104,1015.3263 L 309.17236,1009.1843 L 312.68367,1002.8789 L 316.19499,996.42597 L 319.70631,989.84164 L 323.21761,983.14233 L 326.72893,976.34483 L 330.24095,969.4661 L 333.75228,962.52332 L 337.26358,955.53391 L 340.77491,948.51527"
       id="path2168"
       inkscape:export-filename="/home/rwl/python/aes/Pylon/doc/images/pylon.png"
       inkscape:export-xdpi="9.9810772"
       inkscape:export-ydpi="9.9810772" />
    <path
       style="fill:none;fill-rule:evenodd;stroke:#0000ff;stroke-width:10;stroke-linecap:butt;stroke-linejoin:miter;stroke-miterlimit:4;stroke-dasharray:none;stroke-opacity:1"
       d="M -97.354434,821.53688 L -97.354434,821.53688 L -93.843118,825.20297 L -90.3318,829.16365 L -86.820483,833.41053 L -83.309167,837.93162 L -79.79785,842.71637 L -76.286535,847.75286 L -72.775219,853.02767 L -69.2639,858.52892 L -65.752584,864.24109 L -62.241268,870.15154 L -58.729951,876.24502 L -55.218635,882.50598 L -51.707318,888.91897 L -48.196001,895.46794 L -44.684684,902.13658 L -41.173368,908.90807 L -37.662053,915.76564 L -34.150736,922.69211 L -30.63942,929.67011 L -27.128101,936.68231 L -23.616785,943.71103 L -20.105468,950.73887 L -16.594152,957.74809 L -13.082835,964.72131 L -9.5715131,971.64105 L -6.0602061,978.49002 L -2.5488861,985.25106 L 0.962435,991.90739 L 4.473742,998.44222 L 7.985062,1004.8393 L 11.496383,1011.0826 L 15.007716,1017.1564 L 18.519024,1023.0458 L 22.030344,1028.7361 L 25.541651,1034.2128 L 29.052972,1039.4622 L 32.56429,1044.4713 L 36.075599,1049.228 L 39.58692,1053.7195 L 43.098241,1057.9354 L 46.609551,1061.8652 L 50.120872,1065.4983 L 53.632181,1068.8254 L 57.143514,1071.8397 L 60.654835,1074.5327 L 64.166133,1076.8973 L 67.677454,1078.9279 L 71.188775,1080.6204 L 74.700084,1081.9689 L 78.211405,1082.9716 L 81.722727,1083.6249 L 85.234036,1083.9271 L 88.745356,1083.8786 L 92.256686,1083.4786 L 95.767996,1082.7283 L 99.279316,1081.6293 L 102.79062,1080.1844 L 106.30194,1078.3977 L 109.81326,1076.2736 L 113.32457,1073.817 L 116.83589,1071.0347 L 120.3472,1067.9324 L 123.85853,1064.5195 L 127.36985,1060.8028 L 130.88116,1056.7929 L 134.39249,1052.4996 L 137.90381,1047.9335 L 141.41511,1043.1052 L 144.92643,1038.028 L 148.43774,1032.7144 L 151.94906,1027.1766 L 155.46038,1021.43 L 158.97169,1015.4879 L 162.48301,1009.365 L 165.99432,1003.0775 L 169.50564,996.64046 L 173.01697,990.07019 L 176.52827,983.3832 L 180.03959,976.59601 L 183.55091,969.72566 L 187.06222,962.78928 L 190.57354,955.80429 L 194.08485,948.78806 L 197.59617,941.75821 L 201.1075,934.73225 L 204.61881,927.72782 L 208.13013,920.76232 L 211.64146,913.85329 L 215.15277,907.01786 L 218.66408,900.27323 L 222.17539,893.63617 L 225.68671,887.12334 L 229.19803,880.75093 L 232.70934,874.53495 L 236.22066,868.49077 L 239.73197,862.63375 L 243.24329,856.97854 L 246.75462,851.53915 L 250.26593,846.32902 L 253.77725,841.36144 L 257.28856,836.64911 L 260.79987,832.20257 L 264.31119,828.03445 L 267.8225,824.1539 L 271.33382,820.57221 L 274.84515,817.29633 L 278.35645,814.3362 L 281.86778,811.69806 L 285.37908,809.38901 L 288.89042,807.41463 L 292.40174,805.77988 L 295.91304,804.48895 L 299.42436,803.54535 L 302.93568,802.95122 L 306.44699,802.70723 L 309.95831,802.81551 L 313.46962,803.27464 L 316.98094,804.08395 L 320.49226,805.24129 L 324.00357,806.74316 L 327.5149,808.58745 L 331.02692,810.76785 L 334.53824,813.27941 L 338.04954,816.1165 L 341.56086,819.27142"
       id="path2170"
       inkscape:export-filename="/home/rwl/python/aes/Pylon/doc/images/pylon.png"
       inkscape:export-xdpi="9.9810772"
       inkscape:export-ydpi="9.9810772" />
    <path
       style="fill:none;fill-rule:evenodd;stroke:#da0011;stroke-width:10;stroke-linecap:butt;stroke-linejoin:miter;stroke-miterlimit:4;stroke-dasharray:none;stroke-opacity:1"
       d="M -98.140384,1066.554 L -94.629068,1069.9163 L -91.11775,1072.9665 L -87.606433,1075.696 L -84.095117,1078.0986 L -80.5838,1080.1671 L -77.072484,1081.8983 L -73.561167,1083.2862 L -70.049849,1084.3276 L -66.538533,1085.0209 L -63.027216,1085.3633 L -59.515901,1085.3541 L -56.004585,1084.9934 L -52.493268,1084.2832 L -48.981951,1083.2236 L -45.470634,1081.818 L -41.959318,1080.0694 L -38.448,1077.9833 L -34.936684,1075.5645 L -31.425367,1072.8182 L -27.91405,1069.7525 L -24.402733,1066.374 L -20.891418,1062.6911 L -17.380102,1058.7142 L -13.868785,1054.4525 L -10.357468,1049.916 L -6.8461467,1045.1171 L -3.3348397,1040.068 L 0.17648,1034.7798 L 3.687801,1029.2674 L 7.199108,1023.5432 L 10.71043,1017.6223 L 14.221749,1011.5196 L 17.733056,1005.2499 L 21.244391,998.82909 L 24.755698,992.27309 L 28.267019,985.59848 L 31.778337,978.82171 L 35.289647,971.96 L 38.800968,965.03022 L 42.312289,958.04996 L 45.823598,951.03637 L 49.334919,944.00726 L 52.846217,936.98001 L 56.357538,929.97219 L 59.868871,923.00149 L 63.38018,916.08523 L 66.891502,909.2406 L 70.402823,902.48484 L 73.914132,895.83484 L 77.425453,889.30712 L 80.936774,882.91805 L 84.448084,876.68352 L 87.959405,870.61948 L 91.470726,864.74068 L 94.982026,859.06154 L 98.493356,853.59687 L 102.00467,848.36001 L 105.51599,843.36431 L 109.02731,838.62245 L 112.53862,834.14567 L 116.04994,829.94521 L 119.56125,826.03161 L 123.07257,822.41545 L 126.58389,819.10444 L 130.09519,816.10774 L 133.60651,813.43304 L 137.11785,811.08601 L 140.62915,809.07369 L 144.14048,807.40026 L 147.65179,806.07064 L 151.16311,805.08697 L 154.67443,804.45274 L 158.18574,804.1694 L 161.69706,804.2376 L 165.20837,804.65736 L 168.71968,805.42659 L 172.23102,806.54455 L 175.74232,808.00774 L 179.25364,809.81338 L 182.76496,811.95578 L 186.27627,814.43079 L 189.78759,817.23064 L 193.2989,820.34967 L 196.81022,823.78021 L 200.32154,827.5131 L 203.83285,831.53848 L 207.34417,835.84722 L 210.85551,840.42807 L 214.3668,845.2705 L 217.87813,850.3611 L 221.38943,855.68727 L 224.90076,861.2363 L 228.41208,866.99489 L 231.92339,872.94754 L 235.43471,879.07941 L 238.94602,885.37553 L 242.45734,891.82036 L 245.96866,898.39738 L 249.47996,905.09049 L 252.99129,911.88259 L 256.50261,918.75716 L 260.01392,925.69652 L 263.52524,932.68379 L 267.03655,939.70109 L 270.54787,946.73134 L 274.05919,953.7564 L 277.5705,960.75932 L 281.08182,967.72199 L 284.59312,974.62765 L 288.10444,981.45836 L 291.61577,988.19765 L 295.12708,994.82817 L 298.63841,1001.3339 L 302.14973,1007.6979 L 305.66104,1013.905 L 309.17236,1019.939 L 312.68367,1025.7855 L 316.19499,1031.4288 L 319.70631,1036.8562 L 323.21761,1042.0537 L 326.72893,1047.0072 L 330.24095,1051.7054 L 333.75228,1056.1372 L 337.26358,1060.2898 L 340.77491,1064.1535"
       id="path2172"
       sodipodi:nodetypes="cccccccccccccccccccccccccccccccccccccccccccccccccccccccccccccccccccccccccccccccccccccccccccccccccccccccccccccccccccccccccccccc"
       inkscape:export-filename="/home/rwl/python/aes/Pylon/doc/images/pylon.png"
       inkscape:export-xdpi="9.9810772"
       inkscape:export-ydpi="9.9810772" />
    <rect
       style="fill:none;fill-opacity:1;stroke:#03ff01;stroke-width:10;stroke-miterlimit:4;stroke-dasharray:none;stroke-dashoffset:0;stroke-opacity:1"
       id="rect3313"
       width="440.85315"
       height="440.85315"
       x="-98.716339"
       y="723.6087"
       inkscape:export-filename="/home/rwl/python/aes/Pylon/doc/images/pylon.png"
       inkscape:export-xdpi="9.9810772"
       inkscape:export-ydpi="9.9810772" />
  </g>
</svg>
